<mxfile host="app.diagrams.net" modified="2023-12-21T20:11:22.568Z" agent="Mozilla/5.0 (Windows NT 10.0; Win64; x64) AppleWebKit/537.36 (KHTML, like Gecko) Chrome/120.0.0.0 Safari/537.36" etag="AYt78PNILl4-6_6RZ6J8" version="22.1.11" type="device">
  <diagram name="Page-1" id="dvWrNXE3-gBbBOj--LGO">
    <mxGraphModel dx="1900" dy="557" grid="1" gridSize="10" guides="1" tooltips="1" connect="1" arrows="1" fold="1" page="1" pageScale="1" pageWidth="850" pageHeight="1100" math="0" shadow="0">
      <root>
        <mxCell id="0" />
        <mxCell id="1" parent="0" />
        <mxCell id="PZdCBoGjca87vSYPEijU-21" value="Costumer" style="shape=umlActor;verticalLabelPosition=bottom;verticalAlign=top;html=1;outlineConnect=0;" vertex="1" parent="1">
          <mxGeometry x="10" y="230" width="30" height="60" as="geometry" />
        </mxCell>
        <mxCell id="PZdCBoGjca87vSYPEijU-22" value="" style="ellipse;whiteSpace=wrap;html=1;" vertex="1" parent="1">
          <mxGeometry x="320" width="200" height="80" as="geometry" />
        </mxCell>
        <mxCell id="PZdCBoGjca87vSYPEijU-23" value="Create an account" style="text;html=1;strokeColor=none;fillColor=none;align=center;verticalAlign=middle;whiteSpace=wrap;rounded=0;" vertex="1" parent="1">
          <mxGeometry x="350" y="10" width="140" height="60" as="geometry" />
        </mxCell>
        <mxCell id="PZdCBoGjca87vSYPEijU-24" value="" style="ellipse;whiteSpace=wrap;html=1;" vertex="1" parent="1">
          <mxGeometry x="320" y="110" width="200" height="80" as="geometry" />
        </mxCell>
        <mxCell id="PZdCBoGjca87vSYPEijU-25" value="Search for hotels in prefered areas" style="text;html=1;strokeColor=none;fillColor=none;align=center;verticalAlign=middle;whiteSpace=wrap;rounded=0;" vertex="1" parent="1">
          <mxGeometry x="350" y="120" width="140" height="60" as="geometry" />
        </mxCell>
        <mxCell id="PZdCBoGjca87vSYPEijU-26" value="" style="endArrow=none;html=1;rounded=0;" edge="1" parent="1">
          <mxGeometry width="50" height="50" relative="1" as="geometry">
            <mxPoint x="50" y="240" as="sourcePoint" />
            <mxPoint x="330" y="55" as="targetPoint" />
          </mxGeometry>
        </mxCell>
        <mxCell id="PZdCBoGjca87vSYPEijU-28" value="" style="endArrow=none;html=1;rounded=0;" edge="1" parent="1">
          <mxGeometry width="50" height="50" relative="1" as="geometry">
            <mxPoint x="60" y="260" as="sourcePoint" />
            <mxPoint x="330" y="165" as="targetPoint" />
          </mxGeometry>
        </mxCell>
        <mxCell id="PZdCBoGjca87vSYPEijU-29" value="" style="ellipse;whiteSpace=wrap;html=1;" vertex="1" parent="1">
          <mxGeometry x="300" y="200" width="220" height="80" as="geometry" />
        </mxCell>
        <mxCell id="PZdCBoGjca87vSYPEijU-30" value="View availiability of rooms according to dates&amp;nbsp;" style="text;html=1;strokeColor=none;fillColor=none;align=center;verticalAlign=middle;whiteSpace=wrap;rounded=0;" vertex="1" parent="1">
          <mxGeometry x="340" y="210" width="160" height="60" as="geometry" />
        </mxCell>
        <mxCell id="PZdCBoGjca87vSYPEijU-31" value="" style="endArrow=none;html=1;rounded=0;entryX=-0.015;entryY=0.603;entryDx=0;entryDy=0;entryPerimeter=0;" edge="1" parent="1" target="PZdCBoGjca87vSYPEijU-29">
          <mxGeometry width="50" height="50" relative="1" as="geometry">
            <mxPoint x="60" y="280" as="sourcePoint" />
            <mxPoint x="300" y="260" as="targetPoint" />
            <Array as="points">
              <mxPoint x="300" y="240" />
            </Array>
          </mxGeometry>
        </mxCell>
        <mxCell id="PZdCBoGjca87vSYPEijU-32" value="" style="ellipse;whiteSpace=wrap;html=1;" vertex="1" parent="1">
          <mxGeometry x="305" y="295" width="210" height="80" as="geometry" />
        </mxCell>
        <mxCell id="PZdCBoGjca87vSYPEijU-33" value="View room types and prices" style="text;html=1;strokeColor=none;fillColor=none;align=center;verticalAlign=middle;whiteSpace=wrap;rounded=0;" vertex="1" parent="1">
          <mxGeometry x="335" y="325" width="160" height="30" as="geometry" />
        </mxCell>
        <mxCell id="PZdCBoGjca87vSYPEijU-34" value="" style="endArrow=none;html=1;rounded=0;" edge="1" parent="1">
          <mxGeometry width="50" height="50" relative="1" as="geometry">
            <mxPoint x="60" y="300" as="sourcePoint" />
            <mxPoint x="305" y="330" as="targetPoint" />
          </mxGeometry>
        </mxCell>
        <mxCell id="PZdCBoGjca87vSYPEijU-35" value="" style="ellipse;whiteSpace=wrap;html=1;" vertex="1" parent="1">
          <mxGeometry x="310" y="400" width="210" height="80" as="geometry" />
        </mxCell>
        <mxCell id="PZdCBoGjca87vSYPEijU-36" value="View discounts" style="text;html=1;strokeColor=none;fillColor=none;align=center;verticalAlign=middle;whiteSpace=wrap;rounded=0;" vertex="1" parent="1">
          <mxGeometry x="350" y="425" width="130" height="30" as="geometry" />
        </mxCell>
        <mxCell id="PZdCBoGjca87vSYPEijU-37" value="" style="endArrow=none;html=1;rounded=0;" edge="1" parent="1">
          <mxGeometry width="50" height="50" relative="1" as="geometry">
            <mxPoint x="60" y="320" as="sourcePoint" />
            <mxPoint x="310" y="440" as="targetPoint" />
          </mxGeometry>
        </mxCell>
        <mxCell id="PZdCBoGjca87vSYPEijU-38" value="" style="ellipse;whiteSpace=wrap;html=1;" vertex="1" parent="1">
          <mxGeometry x="320" y="500" width="200" height="80" as="geometry" />
        </mxCell>
        <mxCell id="PZdCBoGjca87vSYPEijU-39" value="Reserve rooms" style="text;html=1;strokeColor=none;fillColor=none;align=center;verticalAlign=middle;whiteSpace=wrap;rounded=0;" vertex="1" parent="1">
          <mxGeometry x="350" y="520" width="140" height="40" as="geometry" />
        </mxCell>
        <mxCell id="PZdCBoGjca87vSYPEijU-40" value="" style="endArrow=none;html=1;rounded=0;" edge="1" parent="1">
          <mxGeometry width="50" height="50" relative="1" as="geometry">
            <mxPoint x="50" y="320" as="sourcePoint" />
            <mxPoint x="320" y="530" as="targetPoint" />
          </mxGeometry>
        </mxCell>
        <mxCell id="PZdCBoGjca87vSYPEijU-41" value="" style="ellipse;whiteSpace=wrap;html=1;" vertex="1" parent="1">
          <mxGeometry x="315" y="730" width="210" height="80" as="geometry" />
        </mxCell>
        <mxCell id="PZdCBoGjca87vSYPEijU-42" value="&lt;br&gt;&lt;span style=&quot;color: rgb(0, 0, 0); font-family: Helvetica; font-size: 12px; font-style: normal; font-variant-ligatures: normal; font-variant-caps: normal; font-weight: 400; letter-spacing: normal; orphans: 2; text-align: center; text-indent: 0px; text-transform: none; widows: 2; word-spacing: 0px; -webkit-text-stroke-width: 0px; background-color: rgb(251, 251, 251); text-decoration-thickness: initial; text-decoration-style: initial; text-decoration-color: initial; float: none; display: inline !important;&quot;&gt;Update rooms availiability&lt;br&gt;&amp;nbsp;according to dates&amp;nbsp;&lt;/span&gt;&lt;br&gt;" style="text;html=1;strokeColor=none;fillColor=none;align=center;verticalAlign=middle;whiteSpace=wrap;rounded=0;" vertex="1" parent="1">
          <mxGeometry x="335" y="750" width="170" height="30" as="geometry" />
        </mxCell>
        <mxCell id="PZdCBoGjca87vSYPEijU-43" value="" style="ellipse;whiteSpace=wrap;html=1;" vertex="1" parent="1">
          <mxGeometry x="320" y="830" width="210" height="80" as="geometry" />
        </mxCell>
        <mxCell id="PZdCBoGjca87vSYPEijU-44" value="" style="ellipse;whiteSpace=wrap;html=1;" vertex="1" parent="1">
          <mxGeometry x="315" y="930" width="200" height="80" as="geometry" />
        </mxCell>
        <mxCell id="PZdCBoGjca87vSYPEijU-45" value="Update rooms prices&amp;nbsp;" style="text;html=1;strokeColor=none;fillColor=none;align=center;verticalAlign=middle;whiteSpace=wrap;rounded=0;" vertex="1" parent="1">
          <mxGeometry x="358" y="855" width="130" height="30" as="geometry" />
        </mxCell>
        <mxCell id="PZdCBoGjca87vSYPEijU-46" value="Update discount details" style="text;html=1;strokeColor=none;fillColor=none;align=center;verticalAlign=middle;whiteSpace=wrap;rounded=0;" vertex="1" parent="1">
          <mxGeometry x="355" y="955" width="130" height="30" as="geometry" />
        </mxCell>
        <mxCell id="PZdCBoGjca87vSYPEijU-47" value="Receptionist" style="shape=umlActor;verticalLabelPosition=bottom;verticalAlign=top;html=1;outlineConnect=0;" vertex="1" parent="1">
          <mxGeometry x="840" y="740" width="30" height="60" as="geometry" />
        </mxCell>
        <mxCell id="PZdCBoGjca87vSYPEijU-49" value="" style="endArrow=none;html=1;rounded=0;" edge="1" parent="1">
          <mxGeometry width="50" height="50" relative="1" as="geometry">
            <mxPoint x="540" y="870" as="sourcePoint" />
            <mxPoint x="810" y="790" as="targetPoint" />
          </mxGeometry>
        </mxCell>
        <mxCell id="PZdCBoGjca87vSYPEijU-50" value="" style="endArrow=none;html=1;rounded=0;" edge="1" parent="1">
          <mxGeometry width="50" height="50" relative="1" as="geometry">
            <mxPoint x="520" y="960" as="sourcePoint" />
            <mxPoint x="810" y="810" as="targetPoint" />
          </mxGeometry>
        </mxCell>
        <mxCell id="PZdCBoGjca87vSYPEijU-51" value="" style="ellipse;whiteSpace=wrap;html=1;" vertex="1" parent="1">
          <mxGeometry x="680" y="220" width="220" height="100" as="geometry" />
        </mxCell>
        <mxCell id="PZdCBoGjca87vSYPEijU-52" value="System" style="text;html=1;strokeColor=none;fillColor=none;align=center;verticalAlign=middle;whiteSpace=wrap;rounded=0;" vertex="1" parent="1">
          <mxGeometry x="760" y="255" width="60" height="30" as="geometry" />
        </mxCell>
        <mxCell id="PZdCBoGjca87vSYPEijU-54" value="" style="endArrow=none;dashed=1;html=1;dashPattern=1 3;strokeWidth=2;rounded=0;" edge="1" parent="1">
          <mxGeometry width="50" height="50" relative="1" as="geometry">
            <mxPoint x="520" y="540" as="sourcePoint" />
            <mxPoint x="640" y="430" as="targetPoint" />
          </mxGeometry>
        </mxCell>
        <mxCell id="PZdCBoGjca87vSYPEijU-55" value="&amp;lt;&amp;lt;include&amp;gt;&amp;gt;" style="text;html=1;strokeColor=none;fillColor=none;align=center;verticalAlign=middle;whiteSpace=wrap;rounded=0;" vertex="1" parent="1">
          <mxGeometry x="630" y="400" width="60" height="30" as="geometry" />
        </mxCell>
        <mxCell id="PZdCBoGjca87vSYPEijU-56" value="" style="endArrow=none;dashed=1;html=1;dashPattern=1 3;strokeWidth=2;rounded=0;" edge="1" parent="1">
          <mxGeometry width="50" height="50" relative="1" as="geometry">
            <mxPoint x="670" y="405" as="sourcePoint" />
            <mxPoint x="730" y="340" as="targetPoint" />
          </mxGeometry>
        </mxCell>
        <mxCell id="PZdCBoGjca87vSYPEijU-57" value="" style="endArrow=classic;html=1;rounded=0;" edge="1" parent="1">
          <mxGeometry width="50" height="50" relative="1" as="geometry">
            <mxPoint x="730" y="340" as="sourcePoint" />
            <mxPoint x="740" y="330" as="targetPoint" />
          </mxGeometry>
        </mxCell>
        <mxCell id="PZdCBoGjca87vSYPEijU-58" value="" style="endArrow=none;dashed=1;html=1;dashPattern=1 3;strokeWidth=2;rounded=0;" edge="1" parent="1">
          <mxGeometry width="50" height="50" relative="1" as="geometry">
            <mxPoint x="515" y="430" as="sourcePoint" />
            <mxPoint x="610" y="360" as="targetPoint" />
          </mxGeometry>
        </mxCell>
        <mxCell id="PZdCBoGjca87vSYPEijU-59" value="&amp;lt;&amp;lt;include&amp;gt;&amp;gt;" style="text;html=1;strokeColor=none;fillColor=none;align=center;verticalAlign=middle;whiteSpace=wrap;rounded=0;" vertex="1" parent="1">
          <mxGeometry x="600" y="325" width="60" height="30" as="geometry" />
        </mxCell>
        <mxCell id="PZdCBoGjca87vSYPEijU-60" value="" style="endArrow=none;dashed=1;html=1;dashPattern=1 3;strokeWidth=2;rounded=0;" edge="1" parent="1">
          <mxGeometry width="50" height="50" relative="1" as="geometry">
            <mxPoint x="650" y="330" as="sourcePoint" />
            <mxPoint x="680" y="305" as="targetPoint" />
          </mxGeometry>
        </mxCell>
        <mxCell id="PZdCBoGjca87vSYPEijU-61" value="" style="endArrow=classic;html=1;rounded=0;" edge="1" parent="1">
          <mxGeometry width="50" height="50" relative="1" as="geometry">
            <mxPoint x="680" y="305" as="sourcePoint" />
            <mxPoint x="690" y="295" as="targetPoint" />
          </mxGeometry>
        </mxCell>
        <mxCell id="PZdCBoGjca87vSYPEijU-63" value="" style="endArrow=none;dashed=1;html=1;dashPattern=1 3;strokeWidth=2;rounded=0;" edge="1" parent="1" target="PZdCBoGjca87vSYPEijU-64">
          <mxGeometry width="50" height="50" relative="1" as="geometry">
            <mxPoint x="508" y="320" as="sourcePoint" />
            <mxPoint x="600" y="300" as="targetPoint" />
          </mxGeometry>
        </mxCell>
        <mxCell id="PZdCBoGjca87vSYPEijU-64" value="&amp;lt;&amp;lt;include&amp;gt;&amp;gt;" style="text;html=1;strokeColor=none;fillColor=none;align=center;verticalAlign=middle;whiteSpace=wrap;rounded=0;" vertex="1" parent="1">
          <mxGeometry x="580" y="280" width="60" height="30" as="geometry" />
        </mxCell>
        <mxCell id="PZdCBoGjca87vSYPEijU-65" value="" style="endArrow=none;dashed=1;html=1;dashPattern=1 3;strokeWidth=2;rounded=0;" edge="1" parent="1">
          <mxGeometry width="50" height="50" relative="1" as="geometry">
            <mxPoint x="635" y="290" as="sourcePoint" />
            <mxPoint x="660" y="280" as="targetPoint" />
          </mxGeometry>
        </mxCell>
        <mxCell id="PZdCBoGjca87vSYPEijU-66" value="" style="endArrow=classic;html=1;rounded=0;entryX=-0.022;entryY=0.578;entryDx=0;entryDy=0;entryPerimeter=0;" edge="1" parent="1" target="PZdCBoGjca87vSYPEijU-51">
          <mxGeometry width="50" height="50" relative="1" as="geometry">
            <mxPoint x="660" y="280" as="sourcePoint" />
            <mxPoint x="670" y="270" as="targetPoint" />
          </mxGeometry>
        </mxCell>
        <mxCell id="PZdCBoGjca87vSYPEijU-67" value="" style="endArrow=none;dashed=1;html=1;dashPattern=1 3;strokeWidth=2;rounded=0;" edge="1" parent="1" target="PZdCBoGjca87vSYPEijU-68">
          <mxGeometry width="50" height="50" relative="1" as="geometry">
            <mxPoint x="520" y="240" as="sourcePoint" />
            <mxPoint x="590" y="240" as="targetPoint" />
          </mxGeometry>
        </mxCell>
        <mxCell id="PZdCBoGjca87vSYPEijU-68" value="&amp;lt;&amp;lt;include&amp;gt;&amp;gt;" style="text;html=1;strokeColor=none;fillColor=none;align=center;verticalAlign=middle;whiteSpace=wrap;rounded=0;" vertex="1" parent="1">
          <mxGeometry x="570" y="230" width="60" height="30" as="geometry" />
        </mxCell>
        <mxCell id="PZdCBoGjca87vSYPEijU-69" value="" style="endArrow=none;dashed=1;html=1;dashPattern=1 3;strokeWidth=2;rounded=0;" edge="1" parent="1">
          <mxGeometry width="50" height="50" relative="1" as="geometry">
            <mxPoint x="630" y="245" as="sourcePoint" />
            <mxPoint x="670" y="255" as="targetPoint" />
          </mxGeometry>
        </mxCell>
        <mxCell id="PZdCBoGjca87vSYPEijU-70" value="" style="endArrow=classic;html=1;rounded=0;" edge="1" parent="1">
          <mxGeometry width="50" height="50" relative="1" as="geometry">
            <mxPoint x="670" y="255" as="sourcePoint" />
            <mxPoint x="680" y="255" as="targetPoint" />
          </mxGeometry>
        </mxCell>
        <mxCell id="PZdCBoGjca87vSYPEijU-71" value="" style="endArrow=none;dashed=1;html=1;dashPattern=1 3;strokeWidth=2;rounded=0;" edge="1" parent="1" target="PZdCBoGjca87vSYPEijU-72">
          <mxGeometry width="50" height="50" relative="1" as="geometry">
            <mxPoint x="520" y="150" as="sourcePoint" />
            <mxPoint x="640" y="200" as="targetPoint" />
          </mxGeometry>
        </mxCell>
        <mxCell id="PZdCBoGjca87vSYPEijU-72" value="&amp;lt;&amp;lt;inlcude&amp;gt;&amp;gt;" style="text;html=1;strokeColor=none;fillColor=none;align=center;verticalAlign=middle;whiteSpace=wrap;rounded=0;" vertex="1" parent="1">
          <mxGeometry x="600" y="180" width="60" height="30" as="geometry" />
        </mxCell>
        <mxCell id="PZdCBoGjca87vSYPEijU-73" value="" style="endArrow=none;dashed=1;html=1;dashPattern=1 3;strokeWidth=2;rounded=0;" edge="1" parent="1">
          <mxGeometry width="50" height="50" relative="1" as="geometry">
            <mxPoint x="660" y="200" as="sourcePoint" />
            <mxPoint x="700" y="220" as="targetPoint" />
          </mxGeometry>
        </mxCell>
        <mxCell id="PZdCBoGjca87vSYPEijU-75" value="" style="endArrow=classic;html=1;rounded=0;" edge="1" parent="1">
          <mxGeometry width="50" height="50" relative="1" as="geometry">
            <mxPoint x="700" y="220" as="sourcePoint" />
            <mxPoint x="720" y="230" as="targetPoint" />
          </mxGeometry>
        </mxCell>
        <mxCell id="PZdCBoGjca87vSYPEijU-76" value="" style="endArrow=none;dashed=1;html=1;dashPattern=1 3;strokeWidth=2;rounded=0;" edge="1" parent="1">
          <mxGeometry width="50" height="50" relative="1" as="geometry">
            <mxPoint x="500" y="70" as="sourcePoint" />
            <mxPoint x="672" y="160" as="targetPoint" />
            <Array as="points" />
          </mxGeometry>
        </mxCell>
        <mxCell id="PZdCBoGjca87vSYPEijU-77" value="&amp;lt;&amp;lt;include&amp;gt;&amp;gt;" style="text;html=1;strokeColor=none;fillColor=none;align=center;verticalAlign=middle;whiteSpace=wrap;rounded=0;" vertex="1" parent="1">
          <mxGeometry x="670" y="150" width="60" height="30" as="geometry" />
        </mxCell>
        <mxCell id="PZdCBoGjca87vSYPEijU-81" value="" style="endArrow=none;dashed=1;html=1;dashPattern=1 3;strokeWidth=2;rounded=0;" edge="1" parent="1">
          <mxGeometry width="50" height="50" relative="1" as="geometry">
            <mxPoint x="710" y="175" as="sourcePoint" />
            <mxPoint x="730" y="200" as="targetPoint" />
          </mxGeometry>
        </mxCell>
        <mxCell id="PZdCBoGjca87vSYPEijU-84" value="" style="endArrow=classic;html=1;rounded=0;" edge="1" parent="1">
          <mxGeometry width="50" height="50" relative="1" as="geometry">
            <mxPoint x="730" y="200" as="sourcePoint" />
            <mxPoint x="750" y="220" as="targetPoint" />
            <Array as="points" />
          </mxGeometry>
        </mxCell>
        <mxCell id="PZdCBoGjca87vSYPEijU-85" value="" style="ellipse;whiteSpace=wrap;html=1;" vertex="1" parent="1">
          <mxGeometry x="310" y="620" width="210" height="80" as="geometry" />
        </mxCell>
        <mxCell id="PZdCBoGjca87vSYPEijU-86" value="" style="endArrow=none;html=1;rounded=0;" edge="1" parent="1">
          <mxGeometry width="50" height="50" relative="1" as="geometry">
            <mxPoint x="525" y="770" as="sourcePoint" />
            <mxPoint x="810" y="770" as="targetPoint" />
          </mxGeometry>
        </mxCell>
        <mxCell id="PZdCBoGjca87vSYPEijU-87" value="Make a payment for rooms" style="text;html=1;strokeColor=none;fillColor=none;align=center;verticalAlign=middle;whiteSpace=wrap;rounded=0;" vertex="1" parent="1">
          <mxGeometry x="340" y="645" width="150" height="30" as="geometry" />
        </mxCell>
        <mxCell id="PZdCBoGjca87vSYPEijU-88" value="" style="ellipse;whiteSpace=wrap;html=1;" vertex="1" parent="1">
          <mxGeometry x="660" y="595" width="200" height="80" as="geometry" />
        </mxCell>
        <mxCell id="PZdCBoGjca87vSYPEijU-89" value="" style="endArrow=none;html=1;rounded=0;" edge="1" parent="1">
          <mxGeometry width="50" height="50" relative="1" as="geometry">
            <mxPoint x="50" y="320" as="sourcePoint" />
            <mxPoint x="310" y="650" as="targetPoint" />
          </mxGeometry>
        </mxCell>
        <mxCell id="PZdCBoGjca87vSYPEijU-90" value="Generate invoice in PDF format" style="text;html=1;strokeColor=none;fillColor=none;align=center;verticalAlign=middle;whiteSpace=wrap;rounded=0;" vertex="1" parent="1">
          <mxGeometry x="680" y="620" width="170" height="30" as="geometry" />
        </mxCell>
        <mxCell id="PZdCBoGjca87vSYPEijU-92" value="&amp;lt;&amp;lt;extend&amp;gt;&amp;gt;" style="text;html=1;strokeColor=none;fillColor=none;align=center;verticalAlign=middle;whiteSpace=wrap;rounded=0;" vertex="1" parent="1">
          <mxGeometry x="560" y="630" width="60" height="30" as="geometry" />
        </mxCell>
        <mxCell id="PZdCBoGjca87vSYPEijU-96" value="" style="endArrow=none;dashed=1;html=1;dashPattern=1 3;strokeWidth=2;rounded=0;entryX=-0.02;entryY=0.595;entryDx=0;entryDy=0;entryPerimeter=0;exitX=1;exitY=0.5;exitDx=0;exitDy=0;" edge="1" parent="1" source="PZdCBoGjca87vSYPEijU-92" target="PZdCBoGjca87vSYPEijU-88">
          <mxGeometry width="50" height="50" relative="1" as="geometry">
            <mxPoint x="630" y="645" as="sourcePoint" />
            <mxPoint x="680" y="595" as="targetPoint" />
          </mxGeometry>
        </mxCell>
        <mxCell id="PZdCBoGjca87vSYPEijU-99" value="" style="endArrow=none;dashed=1;html=1;dashPattern=1 3;strokeWidth=2;rounded=0;" edge="1" parent="1">
          <mxGeometry width="50" height="50" relative="1" as="geometry">
            <mxPoint x="530" y="645" as="sourcePoint" />
            <mxPoint x="560" y="644.5" as="targetPoint" />
          </mxGeometry>
        </mxCell>
        <mxCell id="PZdCBoGjca87vSYPEijU-100" value="" style="endArrow=classic;html=1;rounded=0;" edge="1" parent="1">
          <mxGeometry width="50" height="50" relative="1" as="geometry">
            <mxPoint x="530" y="645" as="sourcePoint" />
            <mxPoint x="510" y="645" as="targetPoint" />
          </mxGeometry>
        </mxCell>
      </root>
    </mxGraphModel>
  </diagram>
</mxfile>
